HIERARCHY
ROOT Hips
{
	OFFSET 0.00000 0.00000 0.00000
	CHANNELS 6 Xposition Yposition Zposition Zrotation Yrotation Xrotation 
	JOINT LHipJoint
	{
		OFFSET 0 0 0
		CHANNELS 3 Zrotation Yrotation Xrotation
		JOINT LeftHip
		{
			OFFSET 1.44960 -1.75505 0.85172
			CHANNELS 3 Zrotation Yrotation Xrotation
			JOINT LeftKnee
			{
				OFFSET 2.40573 -6.60971 0.00000
				CHANNELS 3 Zrotation Yrotation Xrotation
				JOINT LeftAnkle
				{
					OFFSET 2.58773 -7.10974 0.00000
					CHANNELS 3 Zrotation Yrotation Xrotation
					JOINT LeftToe
					{
						OFFSET 0.18252 -0.50147 1.77316
						CHANNELS 3 Zrotation Yrotation Xrotation
						End Site
						{
							OFFSET 0.00000 -0.00000 0.92990
						}
					}
				}
			}
		}
	}
	JOINT RHipJoint
	{
		OFFSET 0 0 0
		CHANNELS 3 Zrotation Yrotation Xrotation
		JOINT RightHip
		{
			OFFSET -1.40744 -1.75505 0.85172
			CHANNELS 3 Zrotation Yrotation Xrotation
			JOINT RightKnee
			{
				OFFSET -2.43714 -6.69600 0.00000
				CHANNELS 3 Zrotation Yrotation Xrotation
				JOINT RightAnkle
				{
					OFFSET -2.51650 -6.91404 0.00000
					CHANNELS 3 Zrotation Yrotation Xrotation
					JOINT RightToe
					{
						OFFSET -0.25383 -0.69740 1.96384
						CHANNELS 3 Zrotation Yrotation Xrotation
						End Site
						{
							OFFSET -0.00000 -0.00000 1.04244
						}
					}
				}
			}
		}
	}
	JOINT lowerback
	{
		OFFSET 0 0 0
		CHANNELS 3 Zrotation Yrotation Xrotation
		JOINT Chest
		{
			OFFSET 0.00579 2.14458 -0.24367
			CHANNELS 3 Zrotation Yrotation Xrotation
			JOINT Chest2
			{
				OFFSET 0.05899 2.16316 -0.04515
				CHANNELS 3 Zrotation Yrotation Xrotation
				JOINT lowerneck
				{
					OFFSET 0 0 0
					CHANNELS 3 Zrotation Yrotation Xrotation
					JOINT Neck
					{
						OFFSET -0.01650 1.59577 0.24841
						CHANNELS 3 Zrotation Yrotation Xrotation
						JOINT Head
						{
							OFFSET -0.01016 1.63072 -0.17782
							CHANNELS 3 Zrotation Yrotation Xrotation
							End Site
							{
								OFFSET -0.00250 1.64111 -0.08717
							}
						}
					}
				}
				JOINT LeftCollar
				{
					OFFSET 0 0 0
					CHANNELS 3 Zrotation Yrotation Xrotation
					JOINT LeftShoulder
					{
						OFFSET 3.17745 0.95174 -0.45729
CHANNELS 3 Zrotation Xrotation Yrotation
						JOINT LeftElbow
						{
OFFSET 0 -4.934850 0.000000
CHANNELS 3 Zrotation Xrotation Yrotation
							JOINT LeftWrist
							{
OFFSET 0 -3.417190 -0.000000
CHANNELS 3 Zrotation Xrotation Yrotation
								JOINT lhand
								{
									OFFSET 0 0 0
CHANNELS 3 Zrotation Xrotation Yrotation
									JOINT LFingers
									{
OFFSET 0 -0.624100 -0.000000
CHANNELS 3 Zrotation Xrotation Yrotation
										End Site
										{
OFFSET 0 -0.503170 -0.000000
										}
									}
								}
								JOINT LThumb
								{
OFFSET 0 0.000000 0.000000
CHANNELS 3 Zrotation Xrotation Yrotation
									End Site
									{
OFFSET 0 -0.510850 0.510850
									}
								}
							}
						}
					}
				}
				JOINT RightCollar
				{
					OFFSET 0 0 0
					CHANNELS 3 Zrotation Yrotation Xrotation
					JOINT RightShoulder
					{
						OFFSET -2.87924 1.13038 -0.75204
CHANNELS 3 Zrotation Xrotation Yrotation
						JOINT RightElbow
						{
OFFSET 0 -5.220340 0.000000
CHANNELS 3 Zrotation Xrotation Yrotation
							JOINT RightWrist
							{
OFFSET 0 -3.418090 -0.000000
CHANNELS 3 Zrotation Xrotation Yrotation
								JOINT rhand
								{
									OFFSET 0 0 0
CHANNELS 3 Zrotation Xrotation Yrotation
									JOINT RFingers
									{
OFFSET 0 -0.775340 -0.000000
CHANNELS 3 Zrotation Xrotation Yrotation
										End Site
										{
OFFSET 0 -0.625100 -0.000000
										}
									}
								}
								JOINT RThumb
								{
OFFSET 0 0.000000 0.000000
CHANNELS 3 Zrotation Xrotation Yrotation
									End Site
									{
OFFSET 0 -0.634640 0.634640
									}
								}
							}
						}
					}
				}
			}
		}
	}
}
MOTION
Frames: 11
Frame Time: 0.008333333333333333
1.351400 17.378800 -34.312800 1.373900 4.012800 4.892600 0.000000 0.000000 0.000000 -23.247000 -9.935800 -14.148000 2.612800 10.040200 29.107100 0.939200 -7.796200 -17.351000 0.094800 1.985700 5.466100 0.000000 0.000000 0.000000 21.410500 1.479300 -11.621200 -2.992300 -10.682600 31.216600 -1.635500 -10.342900 -29.817100 -0.562900 -4.805600 13.354900 1.117700 -0.114800 4.282400 -0.033700 -0.103100 0.895700 -0.655700 -0.055700 -1.482900 -9.212800 -11.638700 -8.722900 0.481600 -14.543600 16.377600 0.255200 -7.503100 7.172600 0.000000 -0.000000 0.000000 10.086700 7.657400 -20.264400 24.391800 -35.575800 7.933300 0.697300 8.955100 -35.947700 0.000000 0.000000 0.000000 -7.125000 0.000000 0.000000 -38.942800 61.554400 17.108800 0.000000 -0.000000 0.000000 -16.871400 -5.991400 13.514900 -12.631700 -20.745200 -2.321200 -7.826200 -20.534700 -26.222200 0.000000 0.000000 0.000000 7.125000 0.000000 -0.000000 13.245000 4.137400 12.602700
1.368235 17.366783 -34.312896 1.409027 4.092831 4.827392 0.000000 0.000000 0.000000 -23.348760 -9.867674 -14.209437 2.650058 10.105768 29.319965 0.963517 -8.065430 -17.589963 0.094351 1.980792 5.452479 0.000000 0.000000 0.000000 21.275577 1.445418 -11.944116 -3.120971 -10.887935 31.903273 -1.707311 -10.182060 -30.164524 -0.551851 -4.750599 13.200082 0.812529 0.033915 4.430766 0.032450 0.084258 0.834764 -0.427292 0.038286 -1.625319 -9.204203 -11.731304 -8.207136 0.541710 -14.727752 16.018004 0.297730 -7.589615 6.979562 0.000000 0.000000 0.000000 10.248492 7.811819 -20.704494 24.452390 -35.638857 7.968672 0.413867 8.657473 -35.437170 0.000000 0.000000 0.000000 -7.125000 0.000000 0.000000 -38.634219 61.085388 16.522915 0.000000 0.000000 0.000000 -17.060715 -5.588317 12.932479 -12.360753 -20.343138 -2.226344 -5.445057 -18.074247 -26.145633 0.000000 0.000000 0.000000 7.125000 0.000000 0.000000 14.656871 4.444009 13.951846
1.395267 17.335547 -34.306271 1.513991 3.948507 4.669102 0.000000 0.000000 0.000000 -23.593457 -9.738827 -14.028407 2.652833 10.110576 29.335584 0.975152 -8.109673 -17.696671 0.104547 2.081604 5.731340 0.000000 0.000000 0.000000 20.981838 1.136587 -12.351504 -3.284464 -11.141433 32.758966 -1.719529 -9.943768 -30.074043 -0.411493 -4.114640 11.399843 0.566355 0.168586 4.402598 0.015155 0.251152 0.930216 -0.316186 0.123348 -1.510313 -9.182061 -11.831390 -8.173053 0.648486 -14.890013 16.009555 0.312163 -7.657952 6.985064 0.000000 0.000000 0.000000 10.423852 8.070448 -20.866359 24.713345 -35.909555 8.121229 -0.111282 7.830204 -36.536494 0.000000 0.000000 0.000000 -7.125000 0.000000 0.000000 -40.422710 61.803580 18.119547 0.000000 0.000000 0.000000 -17.240872 -5.531113 12.340933 -11.884033 -19.630004 -2.063528 -2.882249 -15.103662 -26.306810 0.000000 0.000000 0.000000 7.125000 0.000000 0.000000 16.165339 4.505189 15.491128
1.419087 17.327160 -34.301068 1.806831 3.897722 4.597203 0.000000 0.000000 0.000000 -24.005740 -9.451704 -13.990381 2.657242 10.118330 29.360861 0.991135 -8.191650 -17.845023 0.123321 2.263834 6.235326 0.000000 0.000000 0.000000 20.482555 1.080945 -12.695438 -3.442974 -11.378992 33.569904 -1.795922 -9.494123 -30.250031 -0.438767 -4.246251 11.771004 0.284975 0.171030 4.492039 -0.124035 0.239385 0.957187 -0.300761 0.118409 -1.533560 -9.208745 -11.761453 -8.319821 0.806837 -14.805879 16.104390 0.360871 -7.605304 7.051445 0.000000 0.000000 0.000000 10.734775 8.326481 -20.971696 24.801099 -35.999967 8.172721 0.076033 7.675591 -36.514462 0.000000 0.000000 0.000000 -7.125000 0.000000 0.000000 -40.215696 61.834267 18.038510 0.000000 0.000000 0.000000 -17.267738 -5.545179 12.310749 -11.492557 -19.038958 -1.933778 -0.756930 -12.816111 -26.619409 0.000000 0.000000 0.000000 7.125000 0.000000 0.000000 17.400104 4.362265 16.839007
1.439620 17.310424 -34.295281 2.061106 3.793331 4.436040 0.000000 0.000000 0.000000 -24.381560 -9.019090 -13.887023 2.654833 10.114106 29.347083 1.026947 -8.544140 -18.183351 0.082768 1.806454 4.972323 0.000000 0.000000 0.000000 20.046834 1.030783 -12.952590 -3.615091 -11.628994 34.432780 -1.852186 -9.130281 -30.361591 -0.406874 -4.093979 11.341325 -0.034168 0.285582 4.623400 -0.236091 0.374877 1.009574 -0.245059 0.187187 -1.553315 -9.087387 -11.857520 -8.701548 0.629092 -14.896107 16.585181 0.238112 -7.653588 7.254388 0.000000 0.000000 0.000000 11.068329 8.424700 -21.262062 24.828686 -36.028350 8.188885 0.267776 7.472834 -36.574762 0.000000 0.000000 0.000000 -7.125000 0.000000 0.000000 -40.103936 61.928848 18.069119 0.000000 0.000000 0.000000 -17.263617 -5.409627 12.158150 -11.176682 -18.558195 -1.832006 0.224267 -11.038886 -26.757630 0.000000 0.000000 0.000000 7.125000 0.000000 0.000000 17.964128 4.294185 17.467328
1.455470 17.294099 -34.288089 2.202430 3.812171 4.259550 0.000000 0.000000 0.000000 -24.618604 -8.741276 -13.720853 2.642654 10.092727 29.277629 1.065014 -8.836711 -18.537946 0.066954 1.654285 4.551568 0.000000 0.000000 0.000000 19.734250 0.947332 -13.219844 -3.793692 -11.879800 35.309135 -1.925038 -8.620341 -30.489043 -0.416988 -4.144848 11.484504 -0.341388 0.328502 4.688843 -0.264969 0.416966 1.067017 -0.104991 0.209166 -1.532778 -9.146460 -11.914500 -8.568200 0.785388 -15.003433 16.434456 0.295905 -7.696547 7.204461 0.000000 0.000000 0.000000 11.294340 8.528496 -21.330136 24.765963 -35.963783 8.152095 0.189790 7.359866 -36.748519 0.000000 0.000000 0.000000 -7.125000 0.000000 0.000000 -40.391226 62.041388 18.330276 0.000000 0.000000 0.000000 -17.249055 -5.284039 12.110252 -10.881695 -18.106472 -1.739121 1.121449 -9.351927 -27.124806 0.000000 0.000000 0.000000 7.125000 0.000000 0.000000 18.467900 3.998904 18.122994
1.472965 17.279864 -34.279181 2.455224 3.688124 4.083217 0.000000 0.000000 0.000000 -25.000716 -8.484986 -13.486647 2.624439 10.060684 29.173407 1.071582 -8.940213 -18.603132 0.078414 1.805971 4.969858 0.000000 0.000000 0.000000 19.287330 0.793337 -13.526811 -3.985608 -12.140470 36.231744 -1.944840 -8.175445 -30.331357 -0.423122 -4.174594 11.568449 -0.723760 0.362877 4.765260 -0.346355 0.441829 1.077531 0.024008 0.223079 -1.566846 -9.233484 -11.911075 -8.574949 0.857957 -15.001453 16.573870 0.324695 -7.695341 7.264312 0.000000 0.000000 0.000000 11.442611 8.780910 -21.068219 24.621139 -35.814118 8.067192 0.238141 7.443025 -36.416911 0.000000 0.000000 0.000000 -7.125000 0.000000 0.000000 -39.944699 61.800127 17.864366 0.000000 0.000000 0.000000 -17.213240 -4.927058 12.644615 -10.768669 -17.932786 -1.703977 2.476092 -8.065994 -26.852801 0.000000 0.000000 0.000000 7.125000 0.000000 0.000000 19.250358 4.327755 18.860385
1.491647 17.267160 -34.268172 2.759915 3.490312 3.862249 0.000000 0.000000 0.000000 -25.435658 -7.992102 -13.268371 2.593854 10.006480 28.997765 1.107203 -9.134762 -18.919047 0.058988 1.564284 4.303058 0.000000 0.000000 0.000000 18.758149 0.811392 -13.761037 -4.197755 -12.418461 37.229696 -1.985454 -7.673811 -30.279162 -0.291288 -3.456334 9.553437 -1.057338 0.471406 4.931645 -0.489675 0.565192 1.113569 0.055295 0.285864 -1.625264 -9.531238 -11.915180 -8.291680 1.370899 -15.076140 16.268900 0.542907 -7.709074 7.184494 0.000000 0.000000 0.000000 11.815281 9.076876 -21.368557 24.692314 -35.887823 8.108867 0.812244 7.354077 -36.552189 0.000000 0.000000 0.000000 -7.125000 0.000000 0.000000 -39.550689 62.050243 17.888287 0.000000 0.000000 0.000000 -16.956883 -4.730947 12.105708 -10.507038 -17.528541 -1.624510 3.250863 -6.304633 -26.993405 0.000000 0.000000 0.000000 7.125000 0.000000 0.000000 19.683009 4.232660 19.380554
1.509797 17.256530 -34.265625 3.092020 3.690885 3.698528 0.000000 0.000000 0.000000 -25.888348 -7.837611 -13.044116 2.571361 9.966519 28.868254 1.097396 -9.221538 -18.847705 0.045758 1.380011 3.795030 0.000000 0.000000 0.000000 18.200093 0.566341 -14.128778 -4.406667 -12.682668 38.192212 -1.976896 -7.450322 -30.090638 -0.346969 -3.783826 10.469321 -1.415729 0.454299 5.090672 -0.637882 0.518733 1.142252 0.105898 0.264131 -1.685968 -9.465548 -11.863772 -8.358012 1.439511 -15.023533 16.337627 0.554669 -7.674122 7.215185 0.000000 0.000000 0.000000 12.028588 9.075794 -21.156307 24.478108 -35.665825 7.983613 0.759234 7.457922 -36.023395 0.000000 0.000000 0.000000 -7.125000 0.000000 0.000000 -38.971756 61.628663 17.192767 0.000000 0.000000 0.000000 -16.732125 -4.357795 12.271263 -10.444676 -17.432136 -1.605643 3.938664 -5.535529 -27.471505 0.000000 0.000000 0.000000 7.125000 0.000000 0.000000 20.049951 3.811108 19.959235
1.525652 17.251738 -34.255632 3.233094 3.713375 3.614174 0.000000 0.000000 0.000000 -26.114178 -7.615058 -12.868222 2.543251 9.916138 28.705543 1.118820 -9.282416 -19.029998 0.048811 1.418248 3.900469 0.000000 0.000000 0.000000 17.872802 0.522634 -14.504674 -4.617800 -12.939747 39.143704 -1.995743 -7.116628 -30.012834 -0.295318 -3.491587 9.650859 -1.616085 0.418740 5.025737 -0.704710 0.462624 1.236735 0.154184 0.235714 -1.552854 -9.557823 -11.902242 -8.453728 1.663793 -15.088822 16.169899 0.628218 -7.690355 7.205321 0.000000 0.000000 0.000000 12.275423 9.010789 -21.028547 24.224325 -35.400547 7.836122 0.789021 7.260144 -35.937874 0.000000 0.000000 0.000000 -7.125000 0.000000 0.000000 -38.846220 61.568820 17.075507 0.000000 0.000000 0.000000 -16.473636 -4.314723 12.216516 -10.239459 -17.113162 -1.544656 4.162346 -4.935463 -27.342840 0.000000 0.000000 0.000000 7.125000 0.000000 0.000000 20.181002 3.941545 20.056719
1.534715 17.242760 -34.249991 3.264827 3.738207 3.372257 0.000000 0.000000 0.000000 -26.205334 -7.274809 -12.668566 2.531886 9.895677 28.639511 1.123418 -9.347139 -19.074754 0.021466 0.944126 2.595133 0.000000 0.000000 0.000000 17.700115 0.610463 -14.632701 -4.816403 -13.173564 40.022503 -2.003668 -6.777380 -29.866479 -0.368373 -3.898453 10.791129 -1.764923 0.457005 5.223503 -0.771235 0.500658 1.261703 0.165486 0.255351 -1.639024 -9.518653 -11.984077 -8.262666 1.710930 -15.232406 16.074185 0.636348 -7.755828 7.149707 0.000000 0.000000 0.000000 12.532895 9.091663 -20.739994 24.038346 -35.204572 7.728743 0.575267 6.958067 -36.690155 0.000000 0.000000 0.000000 -7.125000 0.000000 0.000000 -39.956413 62.093057 18.152949 0.000000 0.000000 0.000000 -16.035643 -3.983279 12.040165 -10.147768 -16.970384 -1.517790 4.348136 -5.050606 -27.433215 0.000000 0.000000 0.000000 7.125000 0.000000 0.000000 20.281341 3.863607 20.201456
